<svg width="1600" height="560" viewBox="0 0 1600 560" fill="none" xmlns="http://www.w3.org/2000/svg">
  <rect width="1600" height="560" rx="44" fill="#F5EEE2"/>
  <circle cx="1452" cy="94" r="96" fill="#EFD8B3" fill-opacity="0.78"/>
  <circle cx="152" cy="462" r="132" fill="#E7B97B" fill-opacity="0.24"/>
  <rect x="88" y="88" width="320" height="320" rx="56" fill="#FFF8EE" stroke="#1E3A34" stroke-width="12"/>
  <circle cx="338" cy="150" r="38" fill="#EFD8B3"/>
  <circle cx="156" cy="350" r="30" fill="#E7B97B" fill-opacity="0.32"/>
  <g transform="translate(118 108) scale(0.71)">
    <g transform="translate(27.904822 62.666169)">
      <path d="m 180.95548,296.4332 c -6.99811,-1.49637 -11.92522,-6.20455 -14.38804,-13.74871 -3.37339,-10.33346 -0.1439,-24.18315 7.84706,-33.65211 2.50157,-2.96425 6.72556,-5.75071 10.50973,-6.93298 2.27112,-0.70955 7.26644,-1.00567 9.36666,-0.55526 4.4057,0.94486 9.05362,3.8695 11.77967,7.41222 3.67738,4.77902 5.70888,11.56673 5.70888,19.07468 0,1.74721 0.0893,3.17658 0.19844,3.17639 0.31166,-5.5e-4 1.38401,-2.5818 1.97838,-4.76215 0.76908,-2.82122 0.765,-8.29977 -0.008,-11.15892 -2.60138,-9.61801 -9.53747,-16.48168 -18.55485,-18.3611 -3.49593,-0.72863 -9.04099,-0.46907 -11.9568,0.55969 -0.60068,0.21193 -1.1367,0.38533 -1.19117,0.38533 -0.0545,0 -0.099,-2.26219 -0.099,-5.02708 0,-3.84573 0.0777,-5.02689 0.33073,-5.02624 0.18191,4.6e-4 1.4023,0.20303 2.71198,0.45015 1.7183,0.32421 3.70717,0.44413 7.14375,0.43073 4.04301,-0.0158 5.24217,-0.1201 7.9375,-0.69064 5.84992,-1.23829 14.13331,-4.32126 18.77973,-6.98958 3.39801,-1.95139 5.37009,-3.45393 8.42764,-6.4211 2.97393,-2.88602 4.46947,-4.8816 6.09954,-8.13891 1.73831,-3.4736 1.21431,-3.57392 -2.22626,-0.4262 -9.10129,8.32665 -17.30847,13.07957 -27.82184,16.11213 -4.91747,1.41843 -7.76997,1.77568 -12.9161,1.61764 -4.70089,-0.14436 -6.38969,-0.45301 -9.73714,-1.77957 -2.7111,-1.07438 -4.36311,-2.3246 -5.59961,-4.2377 -1.97491,-3.05558 -2.02485,-6.71179 -0.1425,-10.433 1.68704,-3.33512 3.95355,-5.26802 11.43632,-9.75301 5.30827,-3.18164 7.93215,-5.11328 11.07267,-8.15145 2.91369,-2.81873 5.24129,-6.0056 7.01861,-9.60964 1.25908,-2.55317 2.11161,-5.4976 1.70707,-5.89585 -0.21372,-0.2104 -2.64275,2.28053 -6.7185,6.88969 -2.89923,3.27868 -5.37974,5.58367 -8.62004,8.01012 -2.20852,1.65381 -8.37393,5.67784 -8.69928,5.67784 -0.10135,0 -0.18427,-3.61515 -0.18427,-8.03367 0,-4.41853 -0.11891,-8.67501 -0.26426,-9.45886 -0.68049,-3.6699 -3.4451,-7.2339 -6.93959,-8.94618 -2.03748,-0.99836 -3.88955,-1.34128 -13.03677,-2.41383 -1.30969,-0.15357 -6.36984,-0.80507 -11.24479,-1.44779 -4.87495,-0.64272 -13.09026,-1.70713 -18.25625,-2.36536 -5.16599,-0.65823 -12.13115,-1.55313 -15.47813,-1.98867 -34.483281,-4.48726 -31.607461,-4.19019 -33.880251,-3.49985 -4.49205,1.36442 -7.67044,4.76454 -8.58352,9.18234 -0.182,0.8806 -0.25014,12.57989 -0.20379,34.99116 0.0383,18.51753 0.0101,33.63733 -0.0627,33.59956 -5.75576,-2.98789 -8.91658,-4.07735 -12.22835,-4.21481 -1.38661,-0.0575 -1.52376,-0.11874 -1.64497,-0.73393 -1.62112,-8.22806 -2.31768,-22.87312 -1.59239,-33.47948 0.27116,-3.96527 1.21583,-12.69755 1.71738,-15.875 0.56506,-3.5798 0.12911,-3.99612 -1.17748,-1.12448 -2.52778,5.55556 -5.06194,14.81866 -5.51267,20.15037 l -0.0874,1.03422 -2.76777,0.99706 c -5.20901,1.87649 -8.75929,2.95513 -8.96165,2.72271 -0.11108,-0.12758 -1.9065,-5.054 -3.98982,-10.94759 -2.08332,-5.89359 -4.35975,-12.25872 -5.05874,-14.14473 -0.69898,-1.88601 -1.24632,-3.44599 -1.2163,-3.46662 0.03,-0.0206 2.25722,-1.38677 4.94936,-3.03588 13.66484,-8.37061 22.43566,-15.04856 31.15312,-23.71946 1.92901,-1.91871 3.5073,-3.60507 3.5073,-3.74747 0,-0.14241 -1.10133,-0.85526 -2.4474,-1.58412 -6.68644,-3.62055 -10.5018,-6.40458 -14.61969,-10.66786 -1.59993,-1.65641 -3.54251,-3.93408 -4.31686,-5.06148 -4.1545,-6.04871 -6.11374,-13.45251 -5.37274,-20.30306 0.4643,-4.29241 1.40053,-7.139504 3.86984,-11.768284 1.91353,-3.58695 1.76496,-2.88781 3.17675,-14.94895 0.7565,-6.46294 2.15025,-13.421384 3.80168,-18.980315 0.43039,-1.44875 0.86386,-3.17644 0.96326,-3.83931 0.20677,-1.37883 0.49476,-1.19193 -3.14078,-2.0383 -5.76544,-1.34222 -10.43169,-4.47512 -14.20608,-9.53791 -3.96678,-5.32085 -5.87243,-14.05944 -4.62541,-21.21036 1.57345,-9.02283 6.52582,-15.9374698 14.31826,-19.9915398 4.56362,-2.37425 10.6509,-3.31149 15.33864,-2.36163 5.96363,1.20838 10.89019,4.34763 14.06675,8.9634398 0.72826,1.05822 1.5057,2.28123 1.72764,2.7178 0.99196,1.95119 2.11823,5.81259 2.5708,8.8139 0.31632,2.09773 0.64959,3.43967 0.93164,3.75134 0.34125,0.37708 1.00976,0.52572 2.99882,0.66679 5.94871,0.42189 11.68809,2.03154 17.316821,4.85663 9.55091,4.79365 17.25018,11.56124 27.53699,24.20478 1.14261,1.40439 2.16375,2.55343 2.26918,2.55343 0.10544,0 0.83745,-0.57727 1.62669,-1.28283 0.78924,-0.70555 2.75371,-2.46248 4.36548,-3.90429 11.48136,-10.27058 25.06343,-18.31532 37.22423,-22.04813 8.37896,-2.57195 17.71881,-3.11932 26.94784,-1.57929 3.44671,0.57514 3.45208,0.57521 4.15764,0.051 0.54622,-0.40586 0.78088,-0.90914 1.03452,-2.2187 1.14781,-5.9262 2.44687,-9.40694 4.84093,-12.97099 3.18162,-4.7365 8.86494,-8.7290598 14.4422,-10.1457098 13.29793,-3.37775 27.66936,2.98527 33.44597,14.8083498 4.72243,9.6655 4.06792,21.36331 -1.69364,30.26977 -2.85224,4.40912 -8.02439,8.22119 -13.66039,10.06823 -1.86405,0.61089 -7.18232,1.598461 -8.60802,1.598461 -0.48539,0 -1.20272,0.121739 -1.59408,0.27053 -0.65921,0.250632 -0.69872,0.350698 -0.53726,1.36043 0.0958,0.599446 0.93269,3.126848 1.85963,5.61645 2.21184,5.940591 3.78307,11.400681 5.14757,17.888011 1.58371,7.52956 1.99738,11.74513 1.80291,18.373007 -0.20123,6.85858 -0.87113,10.69173 -2.75397,15.75824 -3.45598,9.29963 -9.26318,16.60776 -18.66636,23.49087 -1.27337,0.9321 -2.25627,1.79011 -2.18422,1.90667 0.27662,0.44759 4.63332,-1.06378 8.33342,-2.89094 7.75865,-3.8313 13.85068,-11.28296 17.43121,-21.32152 4.89833,-13.73325 3.76184,-31.025667 -3.38179,-51.455917 -0.7378,-2.110049 -1.34269,-3.976842 -1.34421,-4.148426 -0.002,-0.171584 0.68187,-0.447028 1.51861,-0.612097 4.98454,-0.983328 9.94893,-3.070575 13.5599,-5.701169 1.73608,-1.26475 5.44435,-5.10193 6.80505,-7.04164 3.73494,-5.32423 5.80691,-11.8953 5.93136,-18.81073 0.0597,-3.31672 -0.13867,-3.17665 3.32653,-2.34902 2.52415,0.60288 8.00661,2.58402 8.49084,3.06826 0.14159,0.14158 -1.20133,2.1881 -2.92478,4.45718 -1.42189,1.87204 -3.82762,4.33767 -7.86788,8.06379 -0.79884,0.73672 -1.35819,1.43373 -1.24301,1.54891 0.29203,0.29203 3.43624,-0.56761 5.34126,-1.46031 2.05297,-0.96203 5.5238,-3.59059 7.28358,-5.51607 1.75335,-1.91844 3.78156,-4.78536 4.79357,-6.77582 0.89258,-1.75557 0.86973,-1.82535 -1.024,-3.12828 -3.56678,-2.454 -9.25943,-4.46794 -13.73762,-4.86008 -2.91397,-0.25517 -2.91482,-0.25556 -3.10571,-1.4493 -0.0937,-0.58616 -0.59918,-2.34394 -1.12322,-3.9062 -3.7505,-11.1808 -12.00062,-18.7753198 -23.79686,-21.90580983 -3.55865,-0.94438997 -10.62776,-1.20524997 -14.2689,-0.52652 -12.56877,2.34286003 -21.3047,10.55587003 -24.62077,23.14701983 -0.36166,1.37324 -0.6896,2.52883 -0.72875,2.56798 -0.0391,0.0392 -1.07855,-0.12319 -2.30979,-0.36074 -2.47462,-0.47745 -12.99214,-0.64651 -16.11585,-0.25906 -2.37451,0.29453 -8.43211,1.61657 -11.12589,2.42817 -12.25853,3.69334 -25.62765,11.7293 -39.24332,23.58853 l -1.55857,1.35752 -3.19697,-3.73877 c -7.98027,-9.33271 -16.36858,-16.3095 -24.54862,-20.41777 -5.50312,-2.76383 -11.280751,-4.58185 -16.370271,-5.15116 -1.37502,-0.1538 -2.51642,-0.30557 -2.53644,-0.33724 -0.02,-0.0317 -0.18965,-0.95057 -0.37697,-2.04198 -1.04323,-6.07833 -3.73604,-11.2497998 -8.05952,-15.4781198 -3.68971,-3.6085 -8.47321,-6.16762 -13.11765,-7.01781 -2.64564,-0.4843 -2.50271,-0.26432 -2.59295,-3.99069 -0.0953,-3.9331702 0.34759,-7.6118502 0.94386,-7.8406602 0.54304,-0.20839 5.08358,0.34289 7.07304,0.85875 0.87313,0.2264 2.61609,0.77678 3.87324,1.22308 l 2.28574,0.81144 0.30948,1.6279402 c 0.66656,3.50631 2.58588,8.57133 3.34331,8.82289997 0.141,0.0468 0.24331,-1.99459997 0.24458,-4.88013997 0.004,-9.0062602 1.33312,-15.4201202 4.81133,-23.2169002 1.66175,-3.72498 4.36898,-8.59895 4.77625,-8.59895 0.99364,0 5.93663,3.73358 9.364201,7.07304 l 2.81437,2.74203 0.99835,-1.79868 c 3.77135,-6.79523 6.82373,-11.12167 12.08853,-17.13473 l 0.91806,-1.04855 1.69415,1.48737 c 1.97677,1.73551 4.76438,4.93475 6.91019,7.93056 l 1.51545,2.11575 -0.96372,1.49942 c -0.53005,0.82468 -1.194,1.88637 -1.47544,2.35931 -0.28144,0.47294 -0.60888,0.8599 -0.72763,0.8599 -0.11875,0 -0.6345,-0.56555 -1.1461,-1.25677 -1.88792,-2.55077 -6.14507,-6.15157 -7.27286,-6.15157 -1.40319,0 -5.00768,5.42319 -6.84,10.29123 -1.09607,2.91198 -1.48397,5.0512 -1.64625,9.07884 l -0.15682,3.89193 -2.17803,-1.41786 c -2.02301,-1.31694 -5.124281,-2.79241 -6.692531,-3.18405 -0.95705,-0.23901 -1.57254,0.53872 -3.03061,3.8295 -1.26598,2.85724 -2.52644,6.8608202 -3.04041,9.6572902 -0.5404,2.94022 -0.61983,7.47603997 -0.18069,10.31875 0.56934,3.68553 2.41773,8.9498698 3.34328,9.5218898 0.35779,0.22112 0.34366,-0.0832 -0.15422,-3.3237298 -0.55695,-3.62494 -0.357,-10.36789003 0.41649,-14.04533 0.5244,-2.49323 1.88625,-6.7413302 2.98236,-9.3031102 0.49237,-1.15074 0.61276,-1.25991 1.23272,-1.11795 2.163151,0.49534 6.974031,3.5268 10.410501,6.5599402 0.98226,0.86698 1.78588,1.47477 1.7858,1.35064 -2.3e-4,-0.38994 -1.03578,-2.97053 -1.71383,-4.2708502 -1.51973,-2.91447 -1.00989,-8.23078 1.36286,-14.21109 1.04283,-2.62837 3.41747,-6.85986 4.29309,-7.6501 0.50462,-0.4554 0.63356,-0.46872 1.28146,-0.13229 1.03009,0.53488 3.81364,3.38291 4.41126,4.51345 l 0.50659,0.95832 -0.83507,2.34594 c -1.23181,3.46049 -1.61868,5.41034 -1.80414,9.09281 -0.16581,3.2926 0.19887,6.9663302 0.72375,7.2907202 0.13246,0.0819 0.24083,0.0954 0.24083,0.0302 0,-0.85155 1.06107,-5.2408702 1.8679,-7.7269102 2.71159,-8.35511 7.96899,-16.56524 15.10308,-23.58546 3.78164,-3.72129 5.60667,-5.24576 9.75194,-8.14597 7.94993,-5.56211 16.02185,-9.60133 25.8724,-12.94667 l 4.27667,-1.4524 0.5483,1.84107 c 1.49517,5.02052 2.36776,11.20439 2.37272,16.81499 0.005,5.09602 0.37023,4.58299 -4.38418,6.1498 -8.14612,2.68453 -15.24913,6.90329 -20.50237,12.17717 -5.18946,5.20984 -8.35483,10.63657 -9.62364,16.4988102 -0.27902,1.28915 0.3281,0.78712 1.93105,-1.5968102 6.00551,-8.93148 13.4353,-15.38012 23.00443,-19.96656 6.94733,-3.32982 15.35881,-5.5138 23.26311,-6.04009 3.51762,-0.23422 6.85085,-0.16863 7.16037,0.14089 0.1659,0.1659 -1.02426,5.43028 -1.88694,8.34642 -1.20476,4.07245 -2.5907,7.59261 -4.06266,10.31875 -0.66786,1.23693 -1.34596,2.51253 -1.50688,2.83468 -0.18147,0.36329 -0.79499,0.74777 -1.6155,1.01242 -6.09117,1.96464 -10.19148,4.2835502 -14.20188,8.0317902 -1.80484,1.68686 -3.48601,3.99611 -2.90922,3.99611 0.13913,0 1.30761,-0.66568 2.59661,-1.4793 4.34074,-2.73984 9.91423,-5.11932 15.13298,-6.4606802 4.26622,-1.09654 10.80755,-1.55264 15.62706,-1.08961 1.65901,0.15939 3.06467,0.33808 3.12368,0.39709 0.31635,0.31634 -2.13824,7.8600502 -3.75585,11.54292017 -1.32635,3.01976003 -3.65117,6.89513003 -6.34579,10.57816983 -1.2223,1.67065 -2.18149,3.07841 -2.13154,3.12836 0.15628,0.15629 1.79832,-0.77858 3.31499,-1.88734 3.94422,-2.8834198 7.75986,-7.6865698 10.31287,-12.98191983 2.11164,-4.37989997 3.8536,-10.46149017 3.6602,-12.77867017 -0.0814,-0.97518 -0.10614,-0.99516 -1.93453,-1.56252 -3.25793,-1.01094 -7.75172,-1.51587 -11.70105,-1.31475 l -3.49897,0.1782 1.28369,-2.88101 c 3.03278,-6.80651 4.86747,-13.3229 5.46506,-19.41058 0.26675,-2.71741 0.0607,-2.83698 -5.84647,-3.3928 -2.87585,-0.2706 -8.65063,0.004 -12.63492,0.60028 l -2.32642,0.34831 0.0775,-1.56539 0.0774,-1.56538 2.11667,-0.77625 c 10.07414,-3.69449 21.61233,-5.6228 33.60208,-5.61572 4.90666,0.003 11.09943,0.39461 11.42766,0.72285 0.16163,0.16162 -0.44471,3.92355 -1.13615,7.04907 -0.37022,1.67349 -1.21419,4.68108 -1.87549,6.68352 -1.08887,3.29712 -1.26811,3.65549 -1.89878,3.79629 -7.43081,1.659 -10.84656,2.92761 -14.85161,5.5159 -1.76619,1.14141 -2.97447,2.2676 -2.06931,1.92872 0.24433,-0.0915 0.89917,-0.24296 1.45521,-0.33663 0.55604,-0.0937 3.09457,-0.57038 5.64118,-1.05935 10.49505,-2.01513 20.2986,-2.41182 28.27955,-1.1443 l 1.9535,0.31025 -0.15916,1.87624 c -0.33644,3.96615 -2.1407,11.34777 -4.39848,17.9951702 -0.44098,1.29833 -0.7424,2.41997 -0.66984,2.49254 0.0726,0.0726 0.45265,-0.15627 0.84463,-0.50852 2.90146,-2.60735 5.32374,-6.2121602 6.69366,-9.9614302 0.95788,-2.62156 2.27031,-7.57572 2.53448,-9.5671 0.20696,-1.56017 -0.55349,-1.56194 6.54545,0.0152 8.82519,1.96069 14.54131,3.91321 20.81788,7.11102 3.07998,1.5692 7.64176,4.30896 9.27904,5.57291 1.12639,0.86954 1.09876,0.93809 -2.08,5.1607902 -2.92234,3.88206 -5.00412,6.13804997 -8.6368,9.35952 -1.54286,1.36821 -2.76623,2.60455 -2.71861,2.74741 0.0476,0.14286 1.68689,0.58297 3.64283,0.97801 8.60821,1.73862 16.61485,4.6166898 23.16837,8.3280898 3.08934,1.74956 5.12642,3.22058 5.12642,3.70189 0,0.6168 -3.56462,5.13826 -6.00748,7.62007 -1.27979,1.30019 -3.85533,3.55186 -5.72342,5.00371 -1.86808,1.45185 -3.29683,2.73146 -3.175,2.84359 0.12184,0.11212 1.53122,0.76475 3.13194,1.45028 6.39608,2.7392 14.12816,7.10999 19.00109,10.74095 3.23664,2.41171 7.85516,6.4925 7.85148,6.93733 -0.005,0.55916 -3.38057,4.34727 -5.36198,6.01666 -1.86376,1.57025 -5.1167,3.678296 -8.72444,5.653801 -0.98226,0.537863 -1.78594,1.088097 -1.78594,1.222742 0,0.134645 1.0418,0.946692 2.31511,1.804548 9.01507,6.073658 17.96689,15.391788 23.43162,24.390458 0.99106,1.63196 1.74721,3.10981 1.68032,3.28411 -0.16288,0.42448 -3.57472,1.8376 -6.44468,2.66929 -3.36018,0.97374 -6.35017,1.44563 -10.33289,1.63077 -1.92815,0.0896 -3.50573,0.24122 -3.50573,0.33686 0,0.0956 0.20836,0.40593 0.46302,0.68954 2.97227,3.31011 7.32858,9.21298 9.69695,13.1395 3.64972,6.05086 8.35426,17.02923 9.04409,21.10505 0.0862,0.50932 0.20942,1.1203 0.27381,1.35773 0.16142,0.59523 -0.35618,0.74052 -3.30253,0.927 -3.17373,0.20088 -7.98615,-0.38917 -12.18276,-1.49372 -1.66039,-0.43701 -3.07258,-0.74087 -3.13822,-0.67523 -0.0656,0.0656 0.62219,1.64401 1.52849,3.5075 5.01707,10.31588 7.64324,19.40541 8.10734,28.06057 l 0.17379,3.24115 h -1.17174 c -4.17501,0 -11.19007,-1.63768 -16.48348,-3.84809 -0.43027,-0.17967 -0.47563,-0.13384 -0.29342,0.29642 0.11855,0.27993 0.85095,2.35443 1.62756,4.61 4.00929,11.64446 5.23036,23.99713 3.51334,35.54159 -0.35315,2.37441 -0.15877,2.30114 -3.70929,1.39826 -3.35841,-0.85403 -6.20112,-1.98835 -9.34201,-3.72773 -1.44504,-0.80024 -2.66284,-1.41949 -2.70622,-1.37611 -0.0434,0.0434 0.0381,0.78591 0.18094,1.65007 1.20303,7.27527 1.32664,13.89513 0.37555,20.11252 l -0.12455,0.81423 -1.78252,-0.2376 c -2.02079,-0.26935 -5.17704,-1.55022 -7.66699,-3.11141 -0.92769,-0.58167 -1.7989,-1.05757 -1.93601,-1.05757 -0.13712,0 -0.24945,0.50602 -0.24963,1.12448 -4.3e-4,1.51946 -0.72633,7.79031 -1.19277,10.30415 -1.72032,9.27127 -5.70953,18.92938 -10.11895,24.49854 l -0.47925,0.60529 -3.03404,-1.89922 c -3.35652,-2.10109 -5.56281,-3.72472 -7.47445,-5.5005 -0.73572,-0.68343 -1.35817,-1.07387 -1.48701,-0.93275 -0.12189,0.13349 -0.48667,1.13243 -0.81063,2.21986 -1.04602,3.51118 -4.03717,9.3822 -6.47404,12.70723 -1.96339,2.67898 -5.10953,6.4695 -6.45937,7.78235 -1.19866,1.1658 -1.38585,1.26216 -1.81282,0.93317 -1.18244,-0.91112 -5.63551,-4.78953 -5.63551,-4.90826 0,-0.0728 0.81251,-1.36261 1.80558,-2.86624 0.99307,-1.50364 2.71346,-4.50908 3.82308,-6.67876 5.38937,-10.53803 8.27291,-21.11874 9.08176,-33.32408 l 0.17771,-2.68162 1.39033,0.61487 c 2.77202,1.22592 10.63807,2.92316 11.15445,2.40677 0.35182,-0.35182 0.88977,-3.57827 1.19338,-7.15756 0.29169,-3.43867 0.0756,-8.81911 -0.49043,-12.21079 l -0.13482,-0.80787 3.18481,1.53015 c 5.32487,2.55835 12.54061,4.71579 15.77236,4.71579 0.9953,0 0.9051,0.24199 1.77525,-4.7625 0.50395,-2.89837 0.4191,-11.30397 -0.15224,-15.08125 -0.39252,-2.59506 -1.62378,-8.55099 -2.1742,-10.51719 -0.0917,-0.32742 -0.095,-0.59531 -0.007,-0.59531 0.0875,0 1.20275,0.3068 2.47825,0.68177 4.64111,1.36439 12.00541,1.95947 12.7749,1.0323 0.42328,-0.51003 0.15286,-5.9466 -0.44061,-8.85782 -0.51348,-2.51887 -1.75076,-6.39604 -2.75627,-8.63712 -0.87431,-1.94868 -3.19232,-5.5686 -4.46533,-6.9733 l -0.83923,-0.92604 0.16786,1.05834 c 0.0923,0.58208 0.62446,2.55141 1.18253,4.37628 1.79092,5.85622 2.90978,11.35326 2.9119,14.30634 l 10e-4,1.48471 -2.18281,-0.35179 c -3.23803,-0.52186 -5.96349,-1.27663 -8.93281,-2.47379 -3.10716,-1.25274 -6.7805,-3.08751 -8.46354,-4.22741 -0.65485,-0.44351 -1.22988,-0.68972 -1.27786,-0.54713 -0.048,0.1426 0.26987,0.88565 0.70631,1.65123 1.90785,3.34667 4.19619,9.20988 5.18055,13.27373 1.30391,5.38304 1.60433,8.09223 1.60659,14.48838 0.001,3.29847 -0.0648,6.06409 -0.14648,6.14582 -0.28044,0.28044 -4.87995,-1.11823 -7.93349,-2.41251 -3.87705,-1.64333 -8.43617,-4.34341 -12.80185,-7.58171 -1.88179,-1.39585 -3.47113,-2.4882 -3.53188,-2.42745 -0.0607,0.0607 0.27261,1.10079 0.7408,2.3112 1.91083,4.94015 3.02014,9.7333 3.44858,14.90076 0.26619,3.21049 0.0923,8.52776 -0.29966,9.16193 -0.43732,0.70759 -7.13085,-2.06746 -11.14997,-4.62263 -0.76827,-0.48843 -1.65131,-1.02197 -1.96231,-1.18565 l -0.56545,-0.2976 0.0129,5.48344 c 0.0318,13.57686 -2.80006,25.73921 -8.56962,36.80491 -5.59031,10.7219 -12.34045,18.83674 -22.06233,26.52272 -7.35875,5.81774 -16.32658,10.54528 -24.20937,12.76238 -4.37578,1.23072 -10.49363,1.57157 -14.15521,0.78863 z m 5.6555,-7.46764 c 2.29402,-0.71399 3.74533,-1.64844 5.40001,-3.47692 2.73562,-3.02296 3.89345,-6.05248 3.89345,-10.18739 0,-4.05986 -1.09241,-6.60659 -3.91175,-9.11942 -2.68276,-2.39111 -5.51591,-3.21474 -8.74333,-2.5418 -1.01684,0.21201 -2.24659,0.59008 -2.73279,0.84015 -1.85609,0.95464 -3.98673,2.85544 -5.13303,4.57933 -3.71481,5.58654 -3.46238,12.65351 0.60738,17.00441 2.86186,3.05956 6.72305,4.11452 10.62006,2.90164 z m 15.90849,-21.46217 c 1.95554,-0.99765 3.17455,-2.88281 3.17455,-4.90935 0,-2.11029 -1.09081,-3.29251 -3.03793,-3.29251 -1.31509,0 -2.11124,0.38173 -3.25571,1.56102 -2.18679,2.25335 -2.17262,5.82633 0.0269,6.78297 1.16619,0.50721 1.88404,0.47421 3.09218,-0.14213 z m -7.19177,-8.13365 c 2.69878,-2.1843 3.26759,-7.17534 1.00285,-8.79946 -2.72922,-1.95722 -6.76588,1.33018 -6.77353,5.51626 -0.007,3.74054 3.05401,5.48198 5.77068,3.2832 z m -11.58678,-1.19269 c 1.33961,-0.90694 2.10935,-2.59074 2.10935,-4.61417 0,-2.73388 -1.07489,-4.44431 -2.98806,-4.75478 -2.74193,-0.44495 -5.15337,3.9164 -4.03204,7.29241 0.83002,2.49896 2.95781,3.39871 4.91075,2.07654 z m 82.63704,-85.06354 c 0.75197,-1.46875 3.08846,-8.73764 3.59322,-11.17865 1.07828,-5.21451 1.35558,-11.93347 0.71796,-17.39635 -0.1741,-1.49159 -0.241,-2.71198 -0.14867,-2.71198 0.0923,0 0.94327,0.35159 1.89099,0.7813 4.91095,2.22674 11.70028,3.99402 17.4717,4.54795 4.67384,0.44859 12.56525,-0.12565 13.41583,-0.97624 0.34801,-0.348 0.32689,-0.78126 -0.18333,-3.76221 -1.00564,-5.87547 -2.93978,-11.68606 -5.75396,-17.28621 -1.4168,-2.81939 -4.72945,-8.30069 -5.18774,-8.58392 -0.55053,-0.34025 -0.17694,-0.62594 1.011,-0.77314 7.19529,-0.89156 12.44278,-2.35304 17.57379,-4.89448 2.74981,-1.36202 3.20939,-1.76759 2.99549,-2.64356 -0.28112,-1.15126 -3.557,-7.43167 -5.21067,-9.989734 -3.81509,-5.90155 -9.74816,-12.45214 -14.20769,-15.68642 -1.30421,-0.94589 -2.37948,-1.81204 -2.38949,-1.92478 -0.01,-0.11274 0.30922,-0.32593 0.70941,-0.47374 1.63443,-0.60372 7.28003,-3.58335 8.97114,-4.73479 1.06603,-0.72583 1.8428,-1.45127 1.88885,-1.76402 0.20169,-1.36954 -5.34193,-7.734624 -9.44014,-10.838993 -2.48456,-1.882042 -6.95451,-4.204462 -10.08496,-5.239752 -2.76939,-0.91589 -8.20208,-1.56915 -8.20208,-0.98626 0,0.12727 1.57758,1.03107 3.50573,2.00844 6.96232,3.529143 9.88118,5.575522 14.47533,10.148471 3.40371,3.388004 3.53833,3.562554 3.04271,3.945354 -0.97421,0.75244 -6.86407,3.46237 -9.54573,4.39201 -2.70593,0.93805 -9.54327,2.55764 -10.79746,2.55764 -0.37432,0 -0.68058,0.11574 -0.68058,0.25719 0,0.38345 2.38068,1.00134 5.95312,1.54508 3.12499,0.47565 3.21793,0.51006 5.90029,2.18476 4.08854,2.55265 5.97521,4.04605 9.18096,7.26722 4.12808,4.14793 7.30794,8.45794 9.98726,13.536824 l 1.28392,2.43378 -0.7408,0.37906 c -1.54253,0.7893 -7.20893,2.54139 -10.1335,3.13334 -2.70744,0.54801 -3.75698,0.61457 -9.525,0.60402 -7.0683,-0.0129 -9.39113,-0.30347 -15.84772,-1.98224 -3.46036,-0.89972 -3.20228,-0.85634 -3.20228,-0.53824 0,0.43177 3.7427,2.59587 6.64554,3.84257 1.545,0.66354 4.3948,1.65221 6.33291,2.19706 l 3.52382,0.99062 1.67987,2.11667 c 3.95708,4.98598 7.28862,11.0334 9.32862,16.93333 1.2098,3.49888 2.22325,7.42826 2.00637,7.77917 -0.24016,0.38859 -5.22203,0.3331 -8.77777,-0.0978 -8.09212,-0.98056 -16.20379,-3.92183 -22.88581,-8.29832 -3.22287,-2.11087 -3.93536,-2.5176 -4.10791,-2.34504 -0.068,0.068 0.29163,1.18631 0.79917,2.48516 3.19047,8.16481 3.90411,18.31448 1.90522,27.09667 -0.95064,4.17667 -1.71978,6.58534 -2.10283,6.58534 -0.51534,0 -4.89879,-2.18754 -6.94859,-3.46766 -3.89699,-2.43371 -9.362,-6.87868 -12.78756,-10.40078 -0.64876,-0.66705 -1.27191,-1.21281 -1.38478,-1.21281 -0.32092,0 1.75523,5.59474 2.84745,7.67324 2.27531,4.32991 10.66558,10.09546 18.63461,12.80515 2.48528,0.84506 2.55242,0.84418 3.00477,-0.0393 z M 145.20215,119.78369 c 3.90702,-1.7887 6.40237,-5.39116 4.60592,-6.64945 -1.0202,-0.71457 -1.85003,-0.51131 -3.09612,0.75836 -1.52545,1.55432 -3.85248,2.59345 -5.75686,2.5707 -3.35037,-0.04 -7.12502,-3.05677 -8.17024,-6.52976 l -0.34104,-1.1332 1.73655,-1.01555 c 1.98093,-1.15846 4.79132,-4.04059 5.63061,-5.77433 0.48067,-0.99292 0.52022,-1.31 0.27638,-2.215574 -0.71113,-2.64091 -4.02479,-3.62769 -11.47291,-3.41654 -3.61233,0.1024 -4.51838,0.21379 -5.80957,0.7142 -2.62281,1.01651 -3.03889,2.55178 -1.51194,5.578894 1.00928,2.00085 3.55696,4.63313 5.24649,5.42072 1.10455,0.51489 1.13097,0.55658 0.97954,1.54563 -0.53284,3.48019 -4.02155,6.53182 -7.05645,6.17238 -1.745,-0.20667 -3.0689,-0.95311 -4.78735,-2.69918 -1.33817,-1.35968 -1.55302,-1.48328 -2.2951,-1.32029 -0.89039,0.19556 -1.61312,1.01423 -1.61312,1.82727 0,0.75881 1.49498,2.95272 2.73577,4.01479 2.59285,2.21938 6.11519,3.0391 9.20249,2.1416 2.01131,-0.5847 4.25335,-2.27011 5.5397,-4.16436 l 1.07369,-1.58107 1.15978,1.57545 c 1.08202,1.46983 3.09461,3.21308 4.63023,4.01059 2.45599,1.2755 6.51165,1.35075 9.09355,0.16872 z m 45.01375,-15.3046 c 1.90334,-0.41659 4.80866,-1.81818 6.40641,-3.09059 2.58381,-2.057694 4.81476,-5.697364 5.51377,-8.995414 2.21404,-10.44621 -5.83724,-20.17988 -16.15352,-19.52894 -2.81982,0.17793 -4.35757,0.62048 -6.71989,1.93393 -7.52388,4.18328 -10.20428,14.77132 -5.69792,22.50771 1.2396,2.1281 3.96879,4.636894 6.33755,5.825764 3.57269,1.79312 6.519,2.17807 10.3136,1.34754 z m -97.083121,-2.34491 c 5.41112,-1.38393 9.727741,-6.157904 11.080781,-12.254804 0.31023,-1.39791 0.17601,-5.38376 -0.24199,-7.18613 -1.17535,-5.06798 -5.440031,-9.71306 -10.243711,-11.1574 -1.95898,-0.58901 -5.5284,-0.57314 -7.36093,0.0327 -2.5829,0.85396 -4.06195,1.7663 -5.97629,3.68642 -3.06322,3.07246 -4.68892,7.09045 -4.66841,11.5382 0.0126,2.72547 0.5854,5.30936 1.69514,7.64634 1.13507,2.39034 4.27792,5.54739 6.60031,6.630134 3.55032,1.65524 5.78498,1.91621 9.1151,1.06451 z M 236.78257,50.770551 c 5.21996,-1.48842 9.23184,-5.47689 11.13815,-11.07319 0.75808,-2.22548 0.70461,-6.95873 -0.10509,-9.30166 -1.0233,-2.96102 -3.24699,-5.82466 -5.97087,-7.68922 -2.15157,-1.4728 -4.08112,-2.10165 -6.91428,-2.25339 -3.80188,-0.20363 -6.99579,0.86259 -9.85654,3.29038 -3.48265,2.95558 -6.15075,8.02292 -6.15075,11.68172 0,1.05523 0.11281,1.26771 1.12448,2.11803 3.6019,3.02742 7.9159,7.9709 10.59841,12.14489 l 1.23455,1.92096 1.52493,-0.15521 c 0.83871,-0.0854 2.35836,-0.39286 3.37701,-0.68331 z M 59.938499,45.716631 c 2.16034,-4.26317 7.20932,-10.41547 11.28601,-13.75224 l 0.86486,-0.70789 -0.42064,-2.06342 c -0.90453,-4.4372 -3.57521,-8.12031 -7.20484,-9.93614 -5.00526,-2.50402 -10.06878,-1.64574 -14.04427,2.38056 -4.38511,4.44114 -5.24359,10.69212 -2.31675,16.86924 1.53962,3.24937 4.30384,5.80342 8.05225,7.43999 2.71501,1.18539 3.07726,1.16336 3.78338,-0.2301 z m 65.405241,-14.03182 c 0.26888,-5.30507 1.33442,-9.39109 3.65477,-14.01493 1.28482,-2.5603 3.074,-5.48918 3.3532,-5.48918 0.34401,0 3.16947,2.33074 4.605,3.79871 2.61465,2.67373 4.65765,5.64377 6.58769,9.57694 1.00354,2.0451 1.82462,3.86081 1.82462,4.0349 0,0.17409 0.13675,0.31653 0.30388,0.31653 0.43342,0 0.11238,-3.88493 -0.51381,-6.21771 -0.27344,-1.01865 -0.95338,-2.97372 -1.51098,-4.34461 l -1.01382,-2.49252 0.7649,-1.414 c 1.72853,-3.19543 5.93821,-8.0394898 8.96192,-10.3124598 1.40441,-1.05571 4.34666,-2.73537 4.79154,-2.73537 0.24174,0 1.82668,3.56788 2.73992,6.16786 1.17054,3.3324898 1.90776,7.2256398 2.07617,10.9639098 0.0803,1.78263 0.23483,3.24115 0.34338,3.24115 0.25725,0 0.89693,-1.61383 1.48011,-3.73413 0.6163,-2.24072 0.62157,-8.28008 0.01,-11.0027098 -0.87926,-3.91172 -2.52096,-7.67535003 -4.50221,-10.32142 -0.95846,-1.28007 -0.9658,-1.27985 -3.74413,0.11505 -5.35045,2.68624997 -10.64998,7.83247 -14.03591,13.6298598 -0.53196,0.91083 -1.01596,1.70708 -1.07555,1.76943 -0.0596,0.0624 -0.43436,-0.2811 -0.83282,-0.76323 -1.56743,-1.89658 -6.92438,-5.8324298 -7.9383,-5.8324298 -1.35528,0 -5.25837,6.1272298 -7.02617,11.0299498 -1.55422,4.3104 -2.0596,10.71831 -1.10204,13.97317 0.52515,1.78501 1.19696,3.30729 1.45959,3.30729 0.0961,0 0.24887,-1.46252 0.33946,-3.25005 z m -15.10277,-12.56004 c -0.19998,-5.56084 0.54301,-9.5271298 2.65574,-14.1770798 0.79824,-1.75686 0.84532,-1.80441 1.63202,-1.6483 1.27437,0.25287 4.80432,2.50411 6.76948,4.31724 0.98576,0.90951 1.87433,1.65365 1.9746,1.65365 0.34706,0 -0.19564,-2.25455 -0.8598,-3.57188 -1.00185,-1.9871 -1.77345,-2.87964 -3.85717,-4.46172 -1.98444,-1.50670003 -5.38453,-3.34385 -6.18699,-3.34297 -0.65299,7.1e-4 -2.05388,2.15049997 -3.01606,4.6284 -2.43372,6.26761 -2.66867,11.6178198 -0.74202,16.8969698 0.68512,1.87727 1.4183,3.34495 1.67097,3.34495 0.0496,0 0.0312,-1.63767 -0.0408,-3.63926 z M 265.62215,5.8576512 c 3.74282,-2.15539 6.61519,-6.08433003 8.47523,-11.59277 0.57303,-1.69701 0.66583,-2.25501 0.42356,-2.54692 -0.44492,-0.5361 -5.59256,-1.9648702 -8.23039,-2.2844202 -4.76182,-0.57684 -8.97864,-0.22559 -12.99839,1.0827402 -0.96065,0.31268 -2.01601,0.77168 -2.34524,1.02001 -0.57736,0.43551 -0.47792,0.45765 2.80499,0.62449 6.27637,0.31898 13.27317,1.51457 14.90518,2.54695 0.52739,0.33362 0.24686,1.09917 -2.5314,6.90796 -1.22283,2.55669 -2.22333,4.72958 -2.22333,4.82864 0,0.31753 0.36709,0.1923 1.71979,-0.58668 z M 68.034769,289.7221 c -9.48436,-1.49581 -17.77803,-8.16248 -22.78208,-18.31286 -0.95138,-1.92981 -2.03273,-4.46693 -2.40299,-5.63805 -1.96671,-6.22057 -2.15875,-12.39481 -0.54446,-17.50494 1.35359,-4.28489 4.72914,-8.81507 7.97863,-10.70779 7.06175,-4.11323 14.80682,-3.7414 21.74605,1.04401 l 2.19944,1.51677 0.0495,11.02485 0.0495,11.02485 -1.5875,-1.51953 c -2.88753,-2.76391 -5.64648,-3.88632 -9.02054,-3.66978 -9.38891,0.60254 -12.59016,13.35962 -5.3819,21.44709 4.58718,5.14671 11.0807,5.83979 15.54959,1.65967 1.47664,-1.38123 2.84818,-3.7587 3.10888,-5.38906 0.17676,-1.10538 0.46463,-1.41456 0.71341,-0.76623 0.19867,0.51772 2.79121,2.43814 4.33788,3.21327 2.03747,1.02111 4.7174,1.60146 12.91858,2.79757 4.07409,0.59418 7.510721,1.10916 7.636961,1.14439 0.37106,0.10354 -5.778621,3.03896 -9.225361,4.40352 -4.90784,1.94302 -8.28458,2.95521 -12.83229,3.84652 -2.61929,0.51335 -10.21688,0.74759 -12.51133,0.38573 z m -16.48407,-29.64712 c 1.27246,-1.51223 0.85068,-4.05634 -0.99829,-6.02154 -1.07956,-1.14744 -2.03309,-1.63108 -3.21578,-1.63108 -1.25174,0 -1.87858,0.35911 -2.4055,1.37806 -1.38826,2.68458 1.51617,7.08861 4.6749,7.08861 1.08183,0 1.35641,-0.11494 1.94467,-0.81405 z m 7.0415,-7.43525 c 1.90742,-1.90743 1.52517,-5.28333 -0.88951,-7.85569 -1.71138,-1.82313 -3.69814,-2.12277 -5.05379,-0.7622 -2.36692,2.37551 -0.58599,8.11401 2.88889,9.30862 1.27984,0.43999 2.11183,0.25184 3.05441,-0.69073 z m 10.89456,-1.249 c 2.57866,-2.88578 0.66382,-9.02253 -2.81529,-9.02253 -2.17835,0 -3.43354,1.87249 -3.28093,4.8945 0.0775,1.53549 0.23702,2.11328 0.83113,3.01104 1.51916,2.29561 3.78278,2.77583 5.26509,1.11699 z m 91.228091,32.74006 c -1.17379,-0.20434 -14.45127,-2.05144 -26.32604,-3.66236 -3.34698,-0.45404 -10.60979,-1.47823 -16.13958,-2.27598 -5.52979,-0.79774 -12.61401,-1.79714 -15.74271,-2.22088 -15.791701,-2.13879 -17.611941,-2.44264 -19.060871,-3.18183 -1.56178,-0.79677 -3.0918,-2.73952 -3.69465,-4.69132 -0.51945,-1.6818 -0.52782,-2.49876 -0.52782,-51.55213 0,-48.56766 0.0131,-49.87758 0.50969,-51.18464 0.7586,-1.99646 1.75516,-3.13818 3.39412,-3.88853 1.82457,-0.83531 1.52828,-0.8555 17.924321,1.22112 6.985,0.88467 17.10531,2.15273 22.48958,2.81791 9.95905,1.23035 15.98535,2.01465 19.31459,2.51373 1.01864,0.15271 7.38849,0.99019 14.15521,1.86108 6.76672,0.87089 13.00714,1.70889 13.86762,1.86222 1.93545,0.34488 3.98755,1.61368 5.01805,3.10261 1.33413,1.92765 1.47857,3.2341 1.48311,13.4148 l 0.004,9.26611 -1.9237,1.74229 c -4.32506,3.91719 -6.78505,9.30011 -6.45345,14.12133 0.32838,4.77429 3.05305,9.28871 7.02631,11.64167 l 1.34034,0.79375 0.005,7.14647 0.005,7.14647 -1.84764,1.40907 c -2.17059,1.65536 -5.46763,4.96331 -6.76326,6.78565 l -0.9141,1.28569 v -3.71126 c 0,-6.06201 -0.026,-6.08779 -7.15587,-7.07769 -2.6988,-0.3747 -5.33475,-0.68128 -5.85766,-0.68128 -1.24115,0 -2.03496,0.67312 -2.34018,1.98438 -0.14099,0.6057 -0.22027,7.62661 -0.18538,16.41602 0.0562,14.16578 0.0972,15.41295 0.52767,16.06975 0.7608,1.16076 1.49617,1.45513 4.56038,1.82553 l 2.91042,0.3518 0.32486,2.77678 c 0.17867,1.52723 0.55334,3.66975 0.8326,4.76116 0.27927,1.09141 0.49027,1.99189 0.4689,2.00108 -0.0214,0.009 -0.57464,-0.0766 -1.22949,-0.19057 z m -15.2547,-11.78871 c 0.74441,-0.46006 0.91689,-1.94217 0.87643,-7.53101 -0.0569,-7.86627 0.67022,-7.13734 -8.25203,-8.27217 -4.74321,-0.60329 -5.27499,-0.6264 -5.98353,-0.26 -0.42771,0.22118 -0.8916,0.70185 -1.03087,1.06815 -0.13927,0.36631 -0.25277,3.12881 -0.25222,6.13889 9e-4,5.00318 0.0463,5.54725 0.52928,6.33937 0.29057,0.47657 0.82896,0.9808 1.19643,1.12051 0.36746,0.13971 2.95702,0.60179 5.75456,1.02684 4.56757,0.69399 6.4774,0.7925 7.16195,0.36942 z m -21.60328,-3.09596 0.74236,-0.63874 v -6.21929 -6.21929 l -0.64562,-0.68704 c -0.83938,-0.89325 -1.54341,-1.06802 -7.60073,-1.88678 -7.31453,-0.98869 -7.02859,-1.28358 -6.9153,7.13159 l 0.0804,5.97234 0.69725,0.69671 c 0.63378,0.6333 1.19974,0.77623 6.21771,1.57021 3.03625,0.48042 5.78171,0.88374 6.10101,0.89627 0.31931,0.0125 0.91462,-0.26467 1.32292,-0.61598 z m -21.10497,-3.2334 c 0.51608,-0.65609 0.54837,-1.03148 0.54837,-6.37616 0,-6.01768 -0.16052,-6.95603 -1.31309,-7.67582 -0.28572,-0.17844 -3.038091,-0.69204 -6.116381,-1.14134 -8.22163,-1.2 -7.91678,-1.45507 -7.91538,6.62277 9.1e-4,5.226 0.0446,5.76729 0.52929,6.56231 0.29057,0.47657 0.79614,0.9676 1.12349,1.09117 0.96273,0.36344 9.18158,1.5512 10.960891,1.58405 1.46852,0.0271 1.6901,-0.0406 2.18281,-0.66698 z m 42.8008,-14.75804 0.74236,-0.63852 v -5.90992 c 0,-5.36044 -0.0465,-5.97857 -0.50049,-6.64827 -0.27527,-0.40609 -0.72191,-0.85685 -0.99255,-1.00169 -0.73869,-0.39533 -11.51428,-1.86439 -12.27498,-1.67347 -0.36308,0.0911 -0.89638,0.46602 -1.18512,0.83309 -0.48647,0.61845 -0.52498,1.0831 -0.52498,6.33341 0,6.08106 0.14266,6.85338 1.3918,7.53478 0.64993,0.35453 9.37183,1.7161 11.35959,1.77334 0.96449,0.0278 1.4079,-0.10691 1.98437,-0.60275 z m -22.12944,-2.54433 c 0.27997,-0.14983 0.70694,-0.65514 0.94884,-1.12291 0.38657,-0.74755 0.41928,-1.5327 0.27025,-6.48637 -0.0933,-3.09973 -0.29346,-5.86741 -0.44491,-6.15039 -0.50301,-0.93988 -1.66756,-1.25243 -7.32181,-1.96511 -7.88589,-0.99395 -7.48994,-1.35997 -7.48994,6.92378 v 5.89008 l 0.7276,0.80394 c 0.70709,0.78126 0.87682,0.82539 6.01927,1.56506 6.07749,0.87416 6.59767,0.91282 7.2907,0.54192 z m -20.77242,-3.28742 0.64943,-0.64943 v -5.846 c 0,-6.53497 -0.13552,-7.15919 -1.69577,-7.81111 -0.87493,-0.36557 -9.847941,-1.71278 -11.407841,-1.71278 -0.52709,0 -1.1039,0.24269 -1.54213,0.64883 l -0.7001,0.64882 v 5.81625 c 0,3.19893 0.11375,6.11542 0.25278,6.48108 0.45799,1.20462 1.3821,1.52629 6.57108,2.28735 6.469971,0.94893 7.050511,0.95903 7.872551,0.13699 z m 64.17236,-11.86054 c 0.93043,-0.71437 1.0354,-1.41674 1.0354,-6.92801 0,-6.21299 -0.18207,-7.0613 -1.64412,-7.66 -0.47818,-0.19582 -3.33578,-0.69014 -6.35021,-1.09851 -7.82761,-1.06039 -7.61608,-1.24816 -7.61608,6.7606 0,5.73975 0.19473,6.80072 1.36666,7.44584 0.67627,0.37226 9.68603,1.75972 11.59792,1.78602 0.65484,0.009 1.37954,-0.12867 1.61043,-0.30594 z m -21.16957,-3.25405 c 0.63921,-0.68041 0.64143,-0.70319 0.64143,-6.57453 0,-6.49132 -0.0973,-6.96928 -1.55965,-7.65753 -0.82238,-0.38706 -9.70363,-1.60642 -11.63842,-1.59791 -0.78944,0.003 -1.17225,0.1731 -1.65365,0.73276 -0.61834,0.71886 -0.6264,0.80426 -0.6264,6.63093 0,5.57551 0.0305,5.94143 0.54968,6.6015 0.81897,1.04116 1.21271,1.17473 4.77865,1.62117 1.79885,0.2252 3.86594,0.51176 4.59354,0.6368 0.72761,0.12504 1.98677,0.24135 2.79815,0.25846 1.26571,0.0267 1.56634,-0.0659 2.11667,-0.65165 z m -22.26057,-2.3519 c 0.41356,-0.21386 0.87737,-0.74868 1.03069,-1.1885 0.38364,-1.10053 0.3445,-10.7322 -0.0483,-11.89163 -0.54668,-1.61352 -1.14824,-1.83829 -7.17924,-2.68244 -3.03121,-0.42428 -5.79237,-0.70087 -6.13591,-0.61464 -0.34354,0.0862 -0.86086,0.4571 -1.1496,0.82417 -0.48732,0.61952 -0.52498,1.08345 -0.52498,6.4657 0,6.34961 0.12111,6.96291 1.50151,7.60318 0.64579,0.29954 9.42624,1.74971 11.14548,1.84077 0.33465,0.0177 0.94682,-0.14275 1.36038,-0.35661 z m -21.1282,-3.1253 c 0.93287,-0.71624 1.03541,-1.41334 1.03541,-7.03935 0,-3.43506 -0.10978,-5.80212 -0.28713,-6.19137 -0.51106,-1.12165 -1.52676,-1.44531 -6.753711,-2.15211 -6.43385,-0.86999 -6.57208,-0.86832 -7.5316,0.0912 l -0.7734,0.7734 v 5.83701 5.83701 l 0.73804,0.82601 c 0.71593,0.80126 0.8844,0.84814 5.6224,1.56458 5.44158,0.82283 7.328851,0.93052 7.949991,0.45362 z m 64.85043,-16.82896 0.74331,-0.83191 v -11.99524 -11.99524 l -0.5988,-0.89903 c -0.32934,-0.49446 -1.01395,-1.0945 -1.52135,-1.33343 -0.60597,-0.28533 -6.05241,-1.08468 -15.87151,-2.32938 -8.22193,-1.04224 -19.41381,-2.47828 -24.87084,-3.19121 -5.45703,-0.71292 -13.13656,-1.71439 -17.06562,-2.22548 -3.92907,-0.51109 -9.455591,-1.23725 -12.281171,-1.6137 -5.61067,-0.7475 -6.14613,-0.70233 -7.17468,0.60526 -0.49978,0.63537 -0.52016,1.12974 -0.51921,12.59804 9.6e-4,11.50589 0.0203,11.96832 0.53496,12.81253 0.73757,1.20975 1.66276,1.52279 6.36245,2.15277 2.245,0.30093 5.451031,0.73062 7.124521,0.95487 1.67349,0.22425 4.70959,0.63575 6.74688,0.91445 5.55727,0.76022 13.39667,1.79263 19.18229,2.52621 2.83766,0.3598 7.77875,1.00547 10.98021,1.43483 3.20146,0.42936 9.51177,1.27348 14.02292,1.87582 4.51114,0.60234 8.79739,1.19287 9.525,1.31229 0.7276,0.11942 1.91115,0.18165 2.63012,0.1383 1.07931,-0.0651 1.43678,-0.22386 2.05052,-0.91075 z m -10.89564,-6.18478 c -1.42809,-0.47633 -3.07195,-2.28918 -3.55707,-3.92274 -0.47645,-1.60438 -0.5744,-7.45965 -0.15033,-8.98617 0.34634,-1.24672 1.6631,-2.55394 2.96566,-2.9442 0.81166,-0.24318 1.39445,-0.24419 2.5377,-0.004 3.75372,0.78735 5.37595,4.18104 4.93017,10.31383 -0.19868,2.73337 -0.81023,4.29581 -2.02893,5.18371 -0.86687,0.63157 -3.31941,0.81952 -4.6972,0.35996 z m 3.17229,-3.26405 c 0.54638,-1.05656 0.56149,-7.5208 0.0206,-8.80364 -0.49854,-1.18231 -1.84308,-1.79171 -2.86604,-1.29899 -1.10053,0.53008 -1.45235,2.11744 -1.29046,5.82226 0.16067,3.677 0.57884,4.84977 1.85111,5.19158 1.10551,0.297 1.80409,0.0184 2.28483,-0.91121 z m -16.08772,1.52383 c -1.64561,-0.58613 -2.75746,-1.5688 -3.49212,-3.08641 -0.70421,-1.45471 -0.66858,-1.71841 0.23218,-1.71841 1.34523,0 2.41432,0.31656 2.41432,0.71489 0,0.21128 0.34803,0.73218 0.7734,1.15755 1.57692,1.57692 3.72452,0.65201 3.72452,-1.60405 0,-1.48441 -0.49744,-2.61964 -1.33846,-3.05455 -0.87775,-0.4539 -2.18339,-0.50503 -2.91384,-0.1141 -0.63237,0.33843 -2.60989,-0.18721 -2.82634,-0.75127 -0.13167,-0.34314 0.32211,-5.59135 0.62401,-7.217 l 0.12667,-0.68207 3.627,0.47635 c 5.73332,0.75299 5.22958,0.56402 5.22148,1.95878 l -0.007,1.2015 -1.19062,-0.12731 c -0.65485,-0.07 -2.11336,-0.21079 -3.24115,-0.31284 l -2.05052,-0.18553 v 0.79717 c 0,0.43844 -0.0771,1.18268 -0.17134,1.65385 l -0.17133,0.85667 1.05116,-0.17759 c 2.26261,-0.38227 4.93663,0.99077 5.81741,2.98708 0.64657,1.46547 0.61832,4.44544 -0.053,5.58811 -1.09744,1.86806 -3.62469,2.54095 -6.15648,1.63918 z m -9.82801,-1.56573 c -0.74577,-0.60389 -0.82456,-2.11398 -0.13655,-2.61706 1.20686,-0.88248 3.03353,0.10315 3.03353,1.63683 0,0.61657 -0.16021,0.98326 -0.51178,1.17142 -0.76528,0.40956 -1.73977,0.33145 -2.3852,-0.19119 z m -10.43971,-1.10852 c -1.52713,-0.61565 -2.65548,-1.61746 -3.3563,-2.97992 -0.76052,-1.47855 -0.68101,-1.89784 0.32189,-1.69726 0.45475,0.0909 1.15469,0.16536 1.5554,0.16536 0.56259,0 0.80466,0.18369 1.06253,0.80623 0.66976,1.61695 3.21073,2.14693 4.20896,0.87788 0.62246,-0.79132 0.68233,-1.3652 0.24301,-2.3294 -0.42903,-0.94163 -1.35573,-1.47368 -2.8815,-1.65439 l -1.31105,-0.15527 v -1.15377 -1.15378 h 1.54649 c 2.14812,0 2.82517,-0.78512 2.33452,-2.70716 -0.40205,-1.57498 -3.29027,-2.00234 -3.93715,-0.58257 -0.27514,0.60385 -0.39276,0.63839 -1.64147,0.48202 -0.73981,-0.0926 -1.44932,-0.26382 -1.5767,-0.3804 -0.12947,-0.11849 0.0163,-0.72411 0.33057,-1.37326 0.73349,-1.5152 1.84024,-2.05321 4.22368,-2.05321 2.12962,0 4.18967,0.88028 5.12105,2.18828 1.19452,1.67755 0.83579,5.16752 -0.57726,5.61601 -0.6695,0.21249 -0.67972,0.56474 -0.0266,0.9143 1.57709,0.84403 2.26826,4.29668 1.15827,5.78592 -1.3022,1.74711 -4.35604,2.36898 -6.79839,1.38439 z m -24.550481,-0.98726 c -0.30909,-0.0815 -0.47367,-0.45036 -0.52916,-1.18608 -0.0738,-0.97797 -0.16685,-1.09739 -1.10587,-1.41879 -1.82516,-0.62471 -3.60489,-2.82927 -3.60489,-4.4654 0,-0.58099 0.11796,-0.68762 0.76068,-0.68762 1.53713,0 2.41432,0.30673 2.41432,0.84422 0,0.80026 0.47394,1.49488 1.31762,1.93117 1.68345,0.87054 3.180301,0.23173 3.180301,-1.35727 0,-1.0152 -0.71427,-1.76457 -2.592451,-2.71985 -1.94811,-0.99085 -3.73035,-2.53729 -4.18886,-3.63465 -0.51951,-1.24338 -0.45127,-2.98448 0.15601,-3.98046 0.58127,-0.95331 1.52,-1.50972 2.99909,-1.77763 0.98597,-0.17859 1.00212,-0.2006 0.89958,-1.22598 -0.10288,-1.02878 -0.0914,-1.04413 0.78194,-1.04413 0.87396,0 0.88636,0.0166 0.88636,1.18927 0,1.1522 0.0375,1.20691 1.204281,1.75535 0.66235,0.31134 1.50582,0.96142 1.87438,1.44463 0.60731,0.79622 1.54842,3.24269 1.33103,3.46008 -0.049,0.049 -0.82316,0.0125 -1.72026,-0.0813 -1.47182,-0.15383 -1.6311,-0.22941 -1.6311,-0.77395 0,-0.3319 -0.30824,-0.96978 -0.68498,-1.41751 -1.262071,-1.49989 -3.283771,-0.88092 -3.283771,1.00535 0,1.04076 0.70479,1.74617 2.92927,2.9318 3.153321,1.6807 4.214481,3.03694 4.214481,5.38644 0,2.13451 -1.05617,3.28787 -3.30729,3.61163 -1.054111,0.1516 -1.058141,0.15668 -1.008241,1.27126 0.0519,1.16013 -0.083,1.25818 -1.29247,0.93944 z m -60.68163,46.80765 c -2.87397,-3.52413 -6.66831,-8.55085 -8.30964,-11.00857 -1.51338,-2.26612 -1.84537,-2.93088 -1.56274,-3.12913 2.11222,-1.48159 11.31924,-5.1727 14.67595,-5.88361 0.80511,-0.17052 0.82675,-0.14923 0.97859,0.96309 0.0854,0.62561 0.36082,3.426 0.61204,6.22309 l 0.45676,5.08563 -1.33911,1.53961 c -1.62008,1.86265 -3.29059,4.40498 -3.95333,6.01654 -0.26878,0.65358 -0.54822,1.18663 -0.62098,1.18455 -0.0728,-0.002 -0.49465,-0.44812 -0.93754,-0.9912 z m -12.17788,-18.78064 c -1.26386,-2.96782 -2.58267,-6.52441 -13.07314,-35.25573 -4.1790496,-11.44559 -7.1833896,-19.45382 -8.0548096,-21.47055 -0.15758,-0.36468 0.71438,-0.79178 5.31964,-2.60569 6.3821196,-2.51378 11.7528996,-4.31447 12.0292096,-4.0331 0.18859,0.19204 2.73491,7.16069 6.839,18.71663 1.13699,3.20146 3.2777,9.21411 4.75713,13.36146 4.01067,11.24329 9.07071,25.94965 8.964,26.05268 -0.0516,0.0498 -1.40342,0.47026 -3.00415,0.9344 -3.42468,0.99302 -8.16795,2.82609 -11.04048,4.26668 -1.12456,0.56397 -2.10523,1.0254 -2.17926,1.0254 -0.074,0 -0.32475,-0.44648 -0.55714,-0.99218 z m -13.53487,-15.81919 c -3.6016796,-0.97007 -6.4518296,-3.22387 -7.8498096,-6.20738 -0.73846,-1.57599 -0.80565,-1.95208 -0.8035,-4.49791 0.002,-2.50592 0.0854,-2.98553 0.84975,-4.89479 1.12537,-2.81097 3.4976,-5.91221 3.4976,-4.57246 0,0.29956 5.6408396,16.04228 7.0184896,19.58756 l 0.38556,0.99219 -0.85775,-0.0174 c -0.47177,-0.01 -1.47992,-0.18498 -2.24034,-0.38979 z m 27.17946,-44.41267 c 0,-0.76357 0.81647,-4.29337 1.44617,-6.25216 0.91202,-2.837 2.33588,-6.07115 3.87452,-8.80059 0.73095,-1.29665 1.27353,-2.41301 1.20574,-2.4808 -0.0678,-0.0678 -1.37745,0.82989 -2.91036,1.99484 -4.63993,3.52615 -9.20011,5.33594 -15.70171,6.23148 l -1.10543,0.15227 -0.192,-1.52144 c -0.4607,-3.65081 0.84705,-11.70118 2.83946,-17.47939 1.535,-4.45168 2.16425,-5.86145 4.35136,-9.74886 1.0774,-1.915 1.95891,-3.54034 1.95891,-3.61186 0,-0.0715 -1.16086,0.21925 -2.57968,0.64616 -1.41883,0.4269 -3.70913,0.95865 -5.08956,1.18165 -2.81713,0.45509 -8.34849,0.51199 -10.25673,0.1055 -2.71795,-0.57897 -2.52043,-0.44856 -2.32065,-1.53223 0.68176,-3.69808 5.93721,-13.0477 10.5155,-18.7074 2.41953,-2.99105 6.48251,-7.205064 8.97394,-9.307534 1.16723,-0.98501 2.00774,-1.82909 1.86781,-1.87573 -0.13994,-0.0466 -1.25075,0.32634 -2.46847,0.82886 -5.60403,2.31265 -8.04837,2.36768 -13.45192,0.30287 -1.02244,-0.3907 -1.85899,-0.83167 -1.85899,-0.97993 0,-0.48107 3.34066,-4.52893 5.33413,-6.46333 3.00216,-2.91321 7.39284,-6.03014 11.29412,-8.01765 0.63256,-0.32226 1.09558,-0.64047 1.02893,-0.70712 -0.0667,-0.0666 -1.63304,-0.53558 -3.48086,-1.04206 -3.68346,-1.00963 -7.11032,-2.26598 -9.57658,-3.51094 -2.21471,-1.11798 -6.45238,-3.987991 -6.44916,-4.367766 0.004,-0.44423 5.06103,-5.923401 7.27338,-7.880178 3.99382,-3.532431 10.84878,-8.271841 12.98291,-8.976171 0.87436,-0.28856 0.95394,-0.25238 2.6903,1.22323 0.98411,0.83632 2.62273,2.06075 3.64138,2.72095 1.83039,1.1863 6.56948,3.46644 7.20989,3.46892 0.43301,0.002 0.42995,0.0251 -0.34548,2.647118 -1.62546,5.496227 -2.81349,12.178607 -3.8337,21.563537 -0.30057,2.7649 -0.67018,5.49823 -0.82137,6.07407 -0.15118,0.57584 -1.08681,2.5999 -2.07918,4.49792 -3.57233,6.832474 -4.63025,12.857434 -3.54299,20.177824 1.4864,10.00776 7.34093,19.02713 17.13616,26.39961 1.79437,1.35055 5.86839,3.92805 6.59589,4.17299 0.23308,0.0785 0.21204,0.23657 -0.0786,0.59058 -1.01491,1.23621 -8.44369,7.62451 -11.72129,10.0796 -5.40166,4.0461 -12.3558,8.66303 -12.3558,8.20316 z m -47.2814196,-1.37647 c -1.18596,-0.5936 -1.42705,-1.05841 -2.8105104,-5.41854 -0.6732,-2.12168 -2.72935,-7.83668 -4.56921,-12.7 -6.87242,-18.16593 -11.40417,-31.77752 -12.28932,-36.91226 -0.42787,-2.4821 -0.24295,-4.70854 0.52239,-6.28951 0.58276,-1.20383 1.81581,-2.282164 2.61221,-2.284444 0.42784,-0.001 1.25962,1.865004 1.50361,3.373584 0.10013,0.61908 0.27884,1.06578 0.39714,0.99267 0.1183,-0.0731 0.64534,-0.78113 1.1712,-1.57338 l 0.95611,-1.44044 -0.53819,-2.416184 -0.5382,-2.41618 0.60032,-0.50905 c 1.0641,-0.90232 6.86847,-3.6362 9.72845,-4.58214 3.2192804,-1.06477 6.8800404,-1.86422 7.1486804,-1.56115 0.22352,0.25217 4.07947005,9.4539 6.35205,15.158374 2.23535,5.61103 7.51486,19.71569 9.6064896,25.66458 1.6721,4.7557 2.72189,7.66891 6.88894,19.11714 1.09929,3.0201 2.03291,5.79883 2.07471,6.17494 0.0729,0.65624 -0.0842,0.74031 -3.89274,2.0825 -3.33701,1.17602 -10.5797096,4.00131 -14.1833096,5.53275 l -0.95415,0.40548 -2.13993995,-5.61005 c -1.17697005,-3.08553 -2.98661005,-7.93177 -4.02143005,-10.76943 -1.03483,-2.83765 -2.40634,-6.52859 -3.04781,-8.20208 -2.4178,-6.30762 -4.0042804,-10.7386 -7.2943604,-20.37291 -1.86355,-5.45704 -3.39458,-9.65579 -3.40229,-9.33057 -0.008,0.32523 -0.31166,1.61847 -0.67547,2.87387 -0.98813,3.40984 -0.90577,5.19691 0.42918,9.31223 2.49752,7.69926 8.8960704,24.43213 11.4342304,29.90171 2.32727,5.01511 2.75286,6.57064 2.60074,9.50577 -0.0524,1.01032 -1.19051,2.36634 -2.16102,2.57468 -0.3638,0.0781 -1.04263,-0.0488 -1.5085,-0.28196 z M -22.381701,90.960386 c -0.003,-0.1819 -0.18297,-1.33799 -0.40066,-2.56907 -0.49412,-2.7945 -1.17636,-8.52943 -1.17956,-9.91544 -0.002,-0.70037 0.18189,-1.23745 0.56048,-1.64044 l 0.56287,-0.59915 -0.69517,-3.59714 c -1.08168,-5.59717 -0.85666,-7.338601 0.99314,-7.685626 1.60593,-0.301274 2.37645,0.371953 4.88564,4.268725 1.51435,2.351791 2.48797,3.608141 2.87547,3.710491 1.37172,0.36232 5.2265704,5.72657 7.9045204,10.99961 0.7265,1.43051 1.01407,1.2055 -2.62264,2.05207 -3.5277004,0.82121 -9.8260704,3.37601 -11.8617204,4.81146 -0.82528,0.58195 -1.01576,0.6126 -1.02237,0.16451 z" fill="#1E3A34"/>
    </g>
  </g>
  <rect x="476" y="100" width="190" height="58" rx="29" fill="#1E3A34"/>
  <text x="531" y="138" fill="#FFF8EE" font-family="Segoe UI, Arial, sans-serif" font-size="30" font-weight="700">Release</text>
  <rect x="1124" y="52" width="364" height="126" rx="63" fill="#E68B2C"/>
  <text x="1178" y="136" fill="#1E3A34" font-family="Segoe UI, Arial, sans-serif" font-size="76" font-weight="900">v4.1.0</text>
  <text x="476" y="248" fill="#1E3A34" font-family="Segoe UI, Arial, sans-serif" font-size="84" font-weight="700">Harina Receipt Bot</text>
  <text x="476" y="314" fill="#36544C" font-family="Segoe UI, Arial, sans-serif" font-size="34">Discord receipt capture with Gemini, Google Drive, and Google Sheets</text>
  <rect x="476" y="362" width="202" height="64" rx="32" fill="#1E3A34"/>
  <text x="577" y="404" fill="#FFF8EE" font-family="Segoe UI, Arial, sans-serif" font-size="28" font-weight="700" text-anchor="middle">Python + uv</text>
  <rect x="702" y="362" width="258" height="64" rx="32" fill="#D8E7E0"/>
  <text x="831" y="404" fill="#1E3A34" font-family="Segoe UI, Arial, sans-serif" font-size="28" font-weight="700" text-anchor="middle">Docker Compose</text>
  <rect x="986" y="362" width="206" height="64" rx="32" fill="#FFF8EE" stroke="#1E3A34" stroke-width="4"/>
  <text x="1089" y="404" fill="#1E3A34" font-family="Segoe UI, Arial, sans-serif" font-size="28" font-weight="700" text-anchor="middle">Self-hosted</text>
</svg>
