<svg width="1600" height="560" viewBox="0 0 1600 560" fill="none" xmlns="http://www.w3.org/2000/svg">
  <rect width="1600" height="560" rx="44" fill="#F5EEE2"/>
  <circle cx="1430" cy="96" r="120" fill="#EFD8B3"/>
  <circle cx="152" cy="462" r="132" fill="#E7B97B" fill-opacity="0.24"/>
  <rect x="88" y="88" width="320" height="320" rx="56" fill="#FFF8EE" stroke="#1E3A34" stroke-width="12"/>
  <path d="M184 144H272L322 194V340C322 353.255 311.255 364 298 364H186C172.745 364 162 353.255 162 340V168C162 154.745 172.745 144 186 144Z" fill="#FDF4E7" stroke="#1E3A34" stroke-width="12"/>
  <path d="M272 144V184C272 194.493 280.507 203 291 203H322" stroke="#1E3A34" stroke-width="12" stroke-linecap="round" stroke-linejoin="round"/>
  <path d="M206 240H290" stroke="#E68B2C" stroke-width="12" stroke-linecap="round"/>
  <path d="M206 276H290" stroke="#E68B2C" stroke-width="12" stroke-linecap="round"/>
  <path d="M206 312H262" stroke="#E68B2C" stroke-width="12" stroke-linecap="round"/>
  <path d="M364 126L374 148L396 158L374 168L364 190L354 168L332 158L354 148L364 126Z" fill="#E68B2C" stroke="#1E3A34" stroke-width="8" stroke-linejoin="round"/>
  <rect x="476" y="100" width="190" height="58" rx="29" fill="#1E3A34"/>
  <text x="531" y="138" fill="#FFF8EE" font-family="Segoe UI, Arial, sans-serif" font-size="30" font-weight="700">Release</text>
  <text x="476" y="248" fill="#1E3A34" font-family="Segoe UI, Arial, sans-serif" font-size="84" font-weight="700">Harina Receipt Bot</text>
  <text x="476" y="314" fill="#36544C" font-family="Segoe UI, Arial, sans-serif" font-size="34">Discord receipt capture with Gemini, Google Drive, and Google Sheets</text>
  <rect x="476" y="354" width="268" height="78" rx="39" fill="#E68B2C"/>
  <text x="531" y="406" fill="#1E3A34" font-family="Segoe UI, Arial, sans-serif" font-size="46" font-weight="900">v0.1.0</text>
  <rect x="736" y="362" width="202" height="64" rx="32" fill="#1E3A34"/>
  <text x="786" y="404" fill="#FFF8EE" font-family="Segoe UI, Arial, sans-serif" font-size="28" font-weight="700">Python + uv</text>
  <rect x="962" y="362" width="258" height="64" rx="32" fill="#D8E7E0"/>
  <text x="1009" y="404" fill="#1E3A34" font-family="Segoe UI, Arial, sans-serif" font-size="28" font-weight="700">Docker Compose</text>
  <rect x="1246" y="362" width="206" height="64" rx="32" fill="#FFF8EE" stroke="#1E3A34" stroke-width="4"/>
  <text x="1296" y="404" fill="#1E3A34" font-family="Segoe UI, Arial, sans-serif" font-size="28" font-weight="700">Self-hosted</text>
</svg>
